# xmcd CD database file
#
# Track frame offsets:
#	150
#	30789
#	39930
#	55284
#	82471
#	101980
#	115710
#	137628
#	151586
#	163531
#	174043
#	185967
#	207560
#	218215
#	239590
#	262088
#	273423
#	285348
#	301996
#	315891
#	326103
#	338258
#
# Disc length: 4694 seconds
#
# Revision: 0
# Processed by: cddbd v1.5.2PL0 Copyright (c) Steve Scherf et al.
# Submitted via: CDex 1.51
#
DISCID=33125416
DTITLE=Various Artist - Cole Porter Songbook - Night and Day
DYEAR=2005
DGENRE=Jazz
TTITLE0=Night and Day - Stan Getz and Bill Evans Quartet
TTITLE1=Always True to You in My Fashion - Peggy Lee and George shearing Sextet
TTITLE2=I've Got You Under My Skin - Bill Evans and Jim Hall
TTITLE3=My Heart Belongs to Daddy - Dizzy Gillespie Quintet
TTITLE4=I Get a Kick Out of You - Louis Armstrong and Oscar Peterson Trio
TTITLE5=Easy to Love - Billie Holiday and Charlie Shavers
TTITLE6=Get Out of Town - Roland Kirk Quartet
TTITLE7=After You, Who? - Helen Mirren and Orchestra
TTITLE8=What iis This Thing Called Love? - Charlie Parker and Orchestra
TTITLE9=All of You - Annie Ross and Gerry Mulligan Quartet
TTITLE10=I Love You - Oscar Peterson Trio and Orchestra
TTITLE11=Easy to Love - Sonny Stitt Quartet
TTITLE12=Anything Goes - Tony Bennett and Count Basie Orchestra
TTITLE13=I Concentarte on You - Abbey Lincoln and Max Roach Sextet
TTITLE14=Love For Sale - Al Cohn and Zoot Sims
TTITLE15=At Long Last Love - Barbara Carroll Trio
TTITLE16=You're the Top - Jean Turner and Stan Kenton Orchestra
TTITLE17=In the Still of the Night - Billy Eckstine and Quincy Jones Orchestra
TTITLE18=Begin the Beguine - Coleman Hawkins and Oscar Peterson Orchestra
TTITLE19=Just One of Those Things - Nat King Cole and Nelson Riddle Orchestra
TTITLE20=It's All Right With Me - Dinah Shore and Red Norvo Quintet
TTITLE21=Night and Day - Ella Fitzgerald and Buddy Bregman Orchestra
EXTD=YEAR: 2005
EXTT0=
EXTT1=
EXTT2=
EXTT3=
EXTT4=
EXTT5=
EXTT6=
EXTT7=
EXTT8=
EXTT9=
EXTT10=
EXTT11=
EXTT12=
EXTT13=
EXTT14=
EXTT15=
EXTT16=
EXTT17=
EXTT18=
EXTT19=
EXTT20=
EXTT21=
PLAYORDER=
